HIERARCHY
ROOT Hips
{
	OFFSET 0.000000 0.000000 0.000000
	CHANNELS 6 Xposition Yposition Zposition Xrotation Yrotation Zrotation
	JOINT LeftUpLeg_virtual
	{
		OFFSET 0.000000 0.000000 0.000000
		CHANNELS 3 Xrotation Yrotation Zrotation
		JOINT LeftUpLeg
		{
			OFFSET 15.427100 -6.655098 0.678600
			CHANNELS 3 Xrotation Yrotation Zrotation
			JOINT LeftLeg
			{
				OFFSET 4.081073 -39.591068 13.024000
				CHANNELS 3 Xrotation Yrotation Zrotation
				JOINT LeftFoot
				{
					OFFSET -4.081074 -37.707932 -15.979700
					CHANNELS 3 Xrotation Yrotation Zrotation
					JOINT LeftToeBase
					{
						OFFSET 5.346399 -15.068900 20.645000
						CHANNELS 3 Xrotation Yrotation Zrotation
						JOINT LeftToe_End
						{
							OFFSET 2.754700 0.931300 11.300900
							CHANNELS 3 Xrotation Yrotation Zrotation
							End Site
							{
								OFFSET 0 0 0
							}
						}
					}
				}
			}
		}
	}
	JOINT RightUpLeg_virtual
	{
		OFFSET 0.000000 0.000000 0.000000
		CHANNELS 3 Xrotation Yrotation Zrotation
		JOINT RightUpLeg
		{
			OFFSET -15.569500 -6.655098 0.678600
			CHANNELS 3 Xrotation Yrotation Zrotation
			JOINT RightLeg
			{
				OFFSET -4.081825 -39.591045 13.023800
				CHANNELS 3 Xrotation Yrotation Zrotation
				JOINT RightFoot
				{
					OFFSET 4.081824 -37.707954 -15.979600
					CHANNELS 3 Xrotation Yrotation Zrotation
					JOINT RightToeBase
					{
						OFFSET -5.346400 -15.068900 20.645000
						CHANNELS 3 Xrotation Yrotation Zrotation
						JOINT RightToe_End
						{
							OFFSET -2.754700 0.931300 11.300900
							CHANNELS 3 Xrotation Yrotation Zrotation
							End Site
							{
								OFFSET 0 0 0
							}
						}
					}
				}
			}
		}
	}
	JOINT Spine_virtual
	{
		OFFSET 0.000000 0.000000 0.000000
		CHANNELS 3 Xrotation Yrotation Zrotation
		JOINT Spine
		{
			OFFSET -0.279200 12.230698 -2.892100
			CHANNELS 3 Xrotation Yrotation Zrotation
			JOINT Spine1
			{
				OFFSET -0.232667 10.192268 -1.242267
				CHANNELS 3 Xrotation Yrotation Zrotation
				JOINT Spine1_split
				{
					OFFSET -0.232667 10.192268 -1.242267
					CHANNELS 3 Xrotation Yrotation Zrotation
					JOINT Spine2
					{
						OFFSET -0.232667 10.192268 -1.242267
						CHANNELS 3 Xrotation Yrotation Zrotation
						JOINT Neck_virtual
						{
							OFFSET 0.000000 0.000000 0.000000
							CHANNELS 3 Xrotation Yrotation Zrotation
							JOINT Neck
							{
								OFFSET -0.418800 17.814194 8.416900
								CHANNELS 3 Xrotation Yrotation Zrotation
								JOINT Head
								{
									OFFSET 0.000000 7.031097 3.806800
									CHANNELS 3 Xrotation Yrotation Zrotation
									JOINT HeadTop_End
									{
										OFFSET 0.000000 24.646606 12.978600
										CHANNELS 3 Xrotation Yrotation Zrotation
										End Site
										{
											OFFSET 0 0 0
										}
									}
								}
							}
						}
						JOINT LeftShoulder_virtual
						{
							OFFSET 0.000000 0.000000 0.000000
							CHANNELS 3 Xrotation Yrotation Zrotation
							JOINT LeftShoulder
							{
								OFFSET 8.476499 7.247704 -3.868750
								CHANNELS 3 Xrotation Yrotation Zrotation
								JOINT LeftShoulder_split
								{
									OFFSET 8.476499 7.247704 -3.868750
									CHANNELS 3 Xrotation Yrotation Zrotation
									JOINT LeftArm
									{
										OFFSET 9.308998 -2.777710 0.208600
										CHANNELS 3 Xrotation Yrotation Zrotation
										JOINT LeftForeArm
										{
											OFFSET 29.972298 0.000000 0.000000
											CHANNELS 3 Xrotation Yrotation Zrotation
											JOINT LeftHand
											{
												OFFSET 26.026505 0.000000 0.000000
												CHANNELS 3 Xrotation Yrotation Zrotation
												End Site
												{
													OFFSET 0 0 0
												}
											}
										}
									}
								}
							}
						}
						JOINT RightShoulder_virtual
						{
							OFFSET 0.000000 0.000000 0.000000
							CHANNELS 3 Xrotation Yrotation Zrotation
							JOINT RightShoulder
							{
								OFFSET -7.570500 7.247704 -3.868750
								CHANNELS 3 Xrotation Yrotation Zrotation
								JOINT RightShoulder_split
								{
									OFFSET -7.570500 7.247704 -3.868750
									CHANNELS 3 Xrotation Yrotation Zrotation
									JOINT RightArm
									{
										OFFSET -9.308998 -2.777710 0.208500
										CHANNELS 3 Xrotation Yrotation Zrotation
										JOINT RightForeArm
										{
											OFFSET -29.972300 0.000000 0.000000
											CHANNELS 3 Xrotation Yrotation Zrotation
											JOINT RightHand
											{
												OFFSET -26.026505 0.000000 0.000000
												CHANNELS 3 Xrotation Yrotation Zrotation
												End Site
												{
													OFFSET 0 0 0
												}
											}
										}
									}
								}
							}
						}
					}
				}
			}
		}
	}
}
MOTION
Frames: 11
Frame Time: 0.03333333
-1.580254 76.307121 -0.775063 0.000000 0.000000 0.000000 -8.223273 -63.171969 -4.053949 -22.991732 6.448799 30.145122 37.448291 -7.183933 -6.071798 -12.452476 -5.242324 -10.896681 -3.558410 -0.389620 -0.246938 0.000000 0.000000 0.000000 -10.345616 -58.991203 -3.900908 -19.845444 -14.777512 -27.793554 40.341782 5.194361 -7.037094 -19.395446 4.039313 19.926781 -10.215162 1.366230 0.324796 0.000000 0.000000 0.000000 -8.422711 -61.821456 -3.686962 9.632054 -1.563536 -0.562265 5.148133 -0.279915 -5.025985 1.694418 -10.100018 2.066478 0.000000 0.000000 0.000000 6.769725 0.241775 -4.324967 8.744920 21.409201 10.474352 12.785782 28.413631 -18.221300 0.000000 0.000000 0.000000 5.295429 -0.218108 -3.707973 -9.616678 -7.706020 -6.823649 1.050526 -3.278546 -2.078771 -18.567244 23.750233 -24.803376 11.971025 -44.410846 3.879343 0.000000 0.000000 0.000000 3.137361 -1.049084 -4.084109 -9.888479 2.386230 7.653154 -4.379584 1.150453 3.125331 -45.129273 -17.171041 42.513222 175.962352 65.486419 -161.050028 0.000000 0.000000 0.000000 
-2.113019 77.104431 0.429161 0.000000 0.000000 0.000000 -9.070854 -62.500930 -4.613211 -22.128635 7.217337 29.322234 36.754795 -7.181793 -5.634165 -12.089664 -5.349597 -10.313484 -3.569741 -0.402522 0.082865 0.000000 0.000000 0.000000 -11.201228 -58.666899 -4.551830 -18.667930 -14.678044 -28.107714 39.608011 5.129000 -6.917926 -18.535305 3.899964 22.936839 -12.922955 1.441175 -0.205137 0.000000 0.000000 0.000000 -10.236233 -61.292444 -4.842838 8.991417 -1.959183 0.013799 4.766460 -0.450341 -4.451332 0.357125 -9.095466 1.657608 0.000000 0.000000 0.000000 5.786555 0.060097 -3.822073 9.952311 20.871880 10.606369 12.688722 27.639682 -17.184063 0.000000 0.000000 0.000000 4.760139 -0.401440 -3.415417 -9.449679 -7.859744 -8.089434 1.599548 -2.739655 -3.327093 -18.584742 22.260304 -27.129617 14.165712 -47.680864 5.885641 0.000000 0.000000 0.000000 3.015291 -1.111556 -3.652989 -10.056689 1.352719 9.138450 -3.723004 0.435780 1.873407 -41.325021 -15.890818 38.849774 173.224471 66.653214 -157.754557 0.000000 0.000000 0.000000 
-2.939448 78.697174 1.709774 0.000000 0.000000 0.000000 -10.287387 -60.123382 -5.398935 -20.035631 7.899810 26.747687 34.430912 -6.679866 -4.313902 -11.445730 -4.757151 -10.441092 -3.534970 -0.258970 0.230733 0.000000 0.000000 0.000000 -11.939398 -56.683036 -5.219490 -15.066480 -15.971926 -28.285799 36.858112 4.055208 -6.610776 -18.270268 3.209127 24.641723 -11.831770 1.685197 -0.858706 0.000000 0.000000 0.000000 -11.524989 -59.422263 -5.785985 7.719581 -2.499082 0.969724 3.831265 -0.735563 -2.967560 -0.299370 -6.906144 1.188109 0.000000 0.000000 0.000000 4.061689 -0.252313 -2.313685 10.374479 19.413938 11.335452 13.843318 24.805763 -16.334114 0.000000 0.000000 0.000000 3.557859 -0.587927 -2.052344 -9.372357 -7.263963 -10.027087 1.313179 -1.570236 -4.476489 -16.266840 19.544158 -30.559503 18.636291 -53.190013 9.613916 0.000000 0.000000 0.000000 2.151697 -1.309789 -2.294199 -9.700788 0.074881 11.161177 -3.466583 1.466563 0.852852 -37.347853 -19.662902 29.319816 -175.207179 61.069213 -167.956770 0.000000 0.000000 0.000000 
-3.858113 80.608192 2.993595 0.000000 0.000000 0.000000 -11.790950 -56.929992 -6.319895 -16.986329 8.139196 22.778756 31.157059 -5.834936 -2.336315 -10.784547 -3.495646 -11.134695 -3.576907 0.043477 0.029217 0.000000 0.000000 0.000000 -12.422477 -53.374769 -5.639739 -9.929218 -18.351291 -28.344539 33.241656 1.951029 -6.146032 -17.728463 1.938855 24.876109 -8.871472 1.997906 -1.271464 0.000000 0.000000 0.000000 -12.369440 -56.280967 -6.506818 6.271092 -3.014918 2.024563 2.547247 -0.949361 -0.938818 -0.176126 -4.629955 0.835935 0.000000 0.000000 0.000000 1.919308 -0.538214 -0.198232 9.381389 17.405521 12.762470 15.727260 20.662835 -15.836067 0.000000 0.000000 0.000000 1.860418 -0.680238 0.026297 -9.395602 -6.057273 -12.030776 0.686346 0.007913 -4.918029 -12.082650 16.381251 -33.540959 25.869495 -59.430569 15.670998 0.000000 0.000000 0.000000 0.684235 -1.545082 -0.370333 -8.902364 -1.100519 13.367706 -3.106661 3.756043 0.487249 -35.076348 -28.527938 16.842364 -162.625479 50.321344 -178.674812 0.000000 0.000000 0.000000 
-4.852325 82.455055 4.661331 0.000000 0.000000 0.000000 -13.364904 -53.263779 -7.092811 -13.641321 7.617179 17.954132 27.956321 -4.992313 0.036246 -10.138277 -1.874221 -12.182631 -3.875831 0.502078 -0.543077 0.000000 0.000000 0.000000 -12.810672 -49.284521 -5.829765 -4.250749 -21.052846 -28.244360 29.749572 -0.493394 -5.672724 -16.170847 0.277023 24.655460 -8.068916 2.170803 -0.926261 0.000000 0.000000 0.000000 -13.003565 -52.202419 -6.984486 5.003319 -3.298742 2.915242 1.109855 -1.026330 1.237956 -0.143337 -2.866423 0.579323 0.000000 0.000000 0.000000 -0.254208 -0.701647 2.009273 6.394436 15.084734 14.723286 17.545453 16.219167 -15.841931 0.000000 0.000000 0.000000 -0.046018 -0.640261 2.326825 -9.495776 -4.663042 -13.553298 0.399803 1.035736 -5.064524 -7.200438 13.429538 -34.971289 35.617876 -64.526552 24.088896 0.000000 0.000000 0.000000 -1.173726 -1.665265 1.717050 -7.982934 -2.024758 15.603145 -2.173338 7.343185 0.480362 -37.978475 -39.822352 3.216103 -153.319579 39.117118 174.094582 0.000000 0.000000 0.000000 
-5.604039 83.941101 6.398590 0.000000 0.000000 0.000000 -14.865931 -49.539379 -7.562137 -10.853396 6.043876 13.077397 25.965236 -4.451804 2.461882 -9.472818 -0.383777 -13.266183 -4.460968 1.052274 -1.319452 0.000000 0.000000 0.000000 -13.473456 -45.120400 -5.940733 1.225871 -23.205407 -27.949940 26.942733 -2.665862 -5.546521 -13.445655 -1.406588 24.719971 -10.898218 1.961325 0.552212 0.000000 0.000000 0.000000 -13.639993 -47.601962 -7.219099 4.141597 -3.260521 3.454838 -0.304919 -0.912982 3.105551 -0.437017 -2.242252 0.442580 0.000000 0.000000 0.000000 -2.034358 -0.629967 3.889894 1.236314 12.713060 16.770300 18.650366 12.637937 -16.759524 0.000000 0.000000 0.000000 -1.778415 -0.488967 4.369517 -9.680215 -3.639818 -14.375205 0.759754 1.835355 -4.822301 -3.043067 11.354207 -34.500856 44.642263 -66.453192 31.686644 0.000000 0.000000 0.000000 -3.106122 -1.603035 3.618592 -7.185863 -2.540214 17.758704 -2.292657 9.935775 1.361468 -46.956734 -50.253667 -9.993347 -145.197883 31.751815 167.866939 0.000000 0.000000 0.000000 
-5.901484 85.120758 8.204750 0.000000 0.000000 0.000000 -16.109013 -45.880163 -7.676105 -8.991987 3.756904 8.616833 25.592953 -4.167073 4.580586 -8.732907 0.763776 -13.809154 -5.049420 1.636651 -2.177245 0.000000 0.000000 0.000000 -14.206081 -41.012322 -5.801199 6.308320 -24.226022 -27.314548 24.979923 -4.482036 -5.934672 -10.003440 -2.996308 24.592967 -15.364116 1.048998 3.248229 0.000000 0.000000 0.000000 -14.269012 -42.943967 -7.146634 3.698627 -2.959152 3.634090 -1.467784 -0.628736 4.454142 -0.580668 -2.490217 0.400296 0.000000 0.000000 0.000000 -3.239492 -0.366949 5.232459 -5.575225 10.516731 18.746509 19.155795 10.675254 -18.736223 0.000000 0.000000 0.000000 -3.066081 -0.260879 5.836462 -9.929196 -3.216203 -14.423295 1.394667 2.188317 -3.876328 -0.578339 10.111354 -32.592706 48.811722 -64.917205 34.350401 0.000000 0.000000 0.000000 -4.675743 -1.358106 5.009898 -6.600561 -2.607980 19.585106 -3.865008 9.895458 2.309637 -60.689441 -57.556105 -21.590096 -136.010158 29.381660 160.058148 0.000000 0.000000 0.000000 
-5.799959 86.034042 10.330967 0.000000 0.000000 0.000000 -16.732486 -42.283396 -7.325253 -8.113262 1.233594 4.808491 26.491061 -4.118177 6.215909 -7.880028 1.413944 -13.627434 -5.613233 2.217628 -2.919487 0.000000 0.000000 0.000000 -14.881515 -37.235753 -5.447108 10.457664 -23.988280 -26.479211 24.036247 -5.936326 -6.641947 -6.370754 -4.580352 23.994052 -19.411001 -0.697843 6.845654 0.000000 0.000000 0.000000 -14.672925 -38.805409 -6.773524 3.505875 -2.531663 3.537172 -2.221770 -0.377212 5.231512 -0.106113 -3.059657 0.685920 0.000000 0.000000 0.000000 -3.817948 -0.086312 5.991522 -13.240720 8.651113 20.397393 19.207134 10.699749 -21.551386 0.000000 0.000000 0.000000 -3.703144 -0.076271 6.595297 -10.139149 -3.433467 -13.839178 1.963767 2.401408 -2.857015 -0.695284 8.847096 -30.259500 46.581446 -59.814200 30.529197 0.000000 0.000000 0.000000 -5.565928 -0.999496 5.839715 -6.447393 -2.182837 20.880879 -4.545120 8.831294 2.458723 -74.518470 -60.595403 -27.763406 -123.956226 31.094866 148.392622 0.000000 0.000000 0.000000 
-5.416510 86.774788 12.694256 0.000000 0.000000 0.000000 -16.567414 -38.834331 -6.603090 -8.067673 -1.059153 1.841317 27.849828 -4.183014 7.147217 -6.713554 1.431924 -12.749517 -6.200704 2.713134 -3.327076 0.000000 0.000000 0.000000 -15.347466 -33.926666 -4.991714 13.156494 -22.711205 -25.901821 23.879374 -6.899347 -7.502958 -2.235564 -5.845361 23.875987 -23.786859 -3.077185 10.472066 0.000000 0.000000 0.000000 -14.919420 -35.393842 -6.253959 3.346110 -2.222442 3.301546 -2.562246 -0.250540 5.480460 0.766824 -3.750731 1.101167 0.000000 0.000000 0.000000 -3.806401 0.078467 6.277235 -20.639872 7.326060 21.718326 19.006338 12.417265 -24.732035 0.000000 0.000000 0.000000 -3.652668 -0.051552 6.746670 -10.236194 -3.895573 -12.974201 2.003582 2.287035 -1.971396 -2.455561 7.324361 -28.569689 41.710206 -51.871103 23.942817 0.000000 0.000000 0.000000 -5.720882 -0.732941 6.150295 -6.726830 -1.294740 21.236520 -4.022916 6.839837 2.798504 -80.300253 -60.917515 -23.296892 -108.558077 34.589482 131.778583 0.000000 0.000000 0.000000 
-4.927061 87.655891 14.977085 0.000000 0.000000 0.000000 -15.961375 -35.790803 -5.868455 -8.382936 -2.617395 -0.282562 28.963813 -4.256013 7.375711 -5.198685 0.943846 -10.995250 -6.894608 3.046971 -3.413564 0.000000 0.000000 0.000000 -15.476959 -31.192986 -4.561182 14.643461 -20.957262 -25.633230 24.124459 -7.224817 -8.301428 2.912620 -6.291497 24.841654 -28.795114 -5.651367 13.298381 0.000000 0.000000 0.000000 -14.933865 -32.865945 -5.707791 3.013620 -2.151387 3.140473 -2.556956 -0.270024 5.430414 1.488064 -4.000835 1.341596 0.000000 0.000000 0.000000 -3.526773 0.061902 6.258446 -26.725680 6.515408 22.862443 19.065145 15.210521 -27.704844 0.000000 0.000000 0.000000 -3.180594 -0.169439 6.555751 -10.259185 -4.217318 -12.019045 1.550037 1.394297 -1.487619 -4.825633 5.859280 -28.095473 36.993906 -43.579325 17.782097 0.000000 0.000000 0.000000 -5.357407 -0.689130 6.070294 -7.262208 -0.434032 20.721802 -2.941714 4.410184 2.837529 -76.313096 -58.688332 -10.650922 -92.589013 37.279548 112.776457 0.000000 0.000000 0.000000 
-4.490594 88.597252 17.085966 0.000000 0.000000 0.000000 -15.206166 -33.649275 -5.414016 -8.713885 -3.408998 -1.479977 29.658806 -4.261008 7.105672 -3.785696 0.106738 -8.230138 -7.787479 3.141975 -3.084382 0.000000 0.000000 0.000000 -15.275402 -29.096469 -4.330405 15.440066 -19.391611 -25.445482 24.600936 -6.967346 -8.983218 8.118581 -5.874322 26.335405 -32.780171 -7.724499 15.166609 0.000000 0.000000 0.000000 -14.677901 -31.123768 -5.178734 2.447149 -2.286546 3.155516 -2.356340 -0.400590 5.253655 1.802373 -3.737033 1.281628 0.000000 0.000000 0.000000 -3.142004 -0.065061 6.103206 -30.923794 6.140004 23.734272 19.211818 18.186641 -29.731103 0.000000 0.000000 0.000000 -2.604330 -0.357996 6.278507 -10.250063 -4.229829 -11.232187 0.893389 -0.070321 -1.648264 -6.823060 5.157408 -28.507458 32.173838 -37.053028 12.182621 0.000000 0.000000 0.000000 -4.718408 -0.828871 5.865848 -7.891814 0.316685 19.916601 -1.865969 2.017770 2.817724 -65.999169 -54.127234 3.960556 -79.308981 39.556337 94.992550 0.000000 0.000000 0.000000 
